<?xml version="1.0" encoding="UTF-8" standalone="no"?>
<svg
   xmlns:dc="http://purl.org/dc/elements/1.1/"
   xmlns:cc="http://creativecommons.org/ns#"
   xmlns:rdf="http://www.w3.org/1999/02/22-rdf-syntax-ns#"
   xmlns:svg="http://www.w3.org/2000/svg"
   xmlns="http://www.w3.org/2000/svg"
   xmlns:sodipodi="http://sodipodi.sourceforge.net/DTD/sodipodi-0.dtd"
   xmlns:inkscape="http://www.inkscape.org/namespaces/inkscape"
   width="23.719999mm"
   height="23.719999mm"
   viewBox="0 0 23.719999 23.719999"
   version="1.1"
   id="svg8"
   inkscape:version="1.0.2 (e86c870879, 2021-01-15)"
   sodipodi:docname="art.svg">
  <defs
     id="defs2" />
  <sodipodi:namedview
     id="base"
     pagecolor="#3d3d3d"
     bordercolor="#666666"
     borderopacity="1.0"
     inkscape:pageopacity="0"
     inkscape:pageshadow="2"
     inkscape:zoom="1.4142136"
     inkscape:cx="-182.51379"
     inkscape:cy="13.341995"
     inkscape:document-units="mm"
     inkscape:current-layer="layer1"
     inkscape:document-rotation="0"
     showgrid="false"
     inkscape:snap-global="true"
     inkscape:snap-object-midpoints="true"
     inkscape:window-width="1920"
     inkscape:window-height="1017"
     inkscape:window-x="-8"
     inkscape:window-y="-8"
     inkscape:window-maximized="1" />
  <metadata
     id="metadata5">
    <rdf:RDF>
      <cc:Work
         rdf:about="">
        <dc:format>image/svg+xml</dc:format>
        <dc:type
           rdf:resource="http://purl.org/dc/dcmitype/StillImage" />
        <dc:title></dc:title>
      </cc:Work>
    </rdf:RDF>
  </metadata>
  <g
     inkscape:label="Layer 1"
     inkscape:groupmode="layer"
     id="layer1"
     transform="translate(-0.135999,-0.13732999)">
    <path
       id="path20"
       style="fill:#ffffff;fill-opacity:1;stroke:none;stroke-width:0.264583"
       d="M 11.98644,0.137332 A 11.860084,11.860084 0 0 0 0.135998,11.997073 11.860084,11.860084 0 0 0 11.996258,23.857331 11.860084,11.860084 0 0 0 23.855997,11.997073 11.860084,11.860084 0 0 0 11.996258,0.137332 a 11.860084,11.860084 0 0 0 -0.0098,0 z m -0.04754,0.86868 a 10.991459,10.991459 0 0 1 0.05736,0 A 10.991459,10.991459 0 0 1 22.987833,11.997073 10.991459,10.991459 0 0 1 11.996258,22.988651 10.991459,10.991459 0 0 1 1.004681,11.997073 10.991459,10.991459 0 0 1 11.938897,1.006012 Z" />
    <path
       style="fill:#ffffff;fill-opacity:1;stroke:none;stroke-width:0.485274px;stroke-linecap:butt;stroke-linejoin:miter;stroke-opacity:1"
       d="m 11.298341,9.9119722 c 2.820542,1.0547308 7.771848,9.7614518 7.771848,9.7614518 0,0 -8.861604,-5.56405 -9.3103272,-8.426894 0,0 0.9936032,-0.312114 1.5384792,-1.3345578 z"
       id="path768"
       sodipodi:nodetypes="cccc" />
    <path
       style="fill:#ffffff;fill-opacity:1;stroke:none;stroke-width:0.483497px;stroke-linecap:butt;stroke-linejoin:miter;stroke-opacity:1"
       d="M 10.892354,9.1854689 C 10.843362,7.7175661 10.465001,7.1341653 7.9863424,5.8734691 5.8531335,4.7884755 5.8923036,3.5443846 5.8923036,3.5443846 c 0,0 -0.9943612,1.3202446 -0.5242706,3.9271094 0.4700904,2.606863 3.4744651,3.299402 3.7294299,3.231084 C 9.9408498,10.53656 10.56567,9.7410252 10.892354,9.1854689 Z"
       id="path772"
       sodipodi:nodetypes="cscscc" />
  </g>
</svg>
