<?xml version="1.0" encoding="UTF-8" standalone="no"?>
<svg
   xmlns:dc="http://purl.org/dc/elements/1.1/"
   xmlns:cc="http://creativecommons.org/ns#"
   xmlns:rdf="http://www.w3.org/1999/02/22-rdf-syntax-ns#"
   xmlns:svg="http://www.w3.org/2000/svg"
   xmlns="http://www.w3.org/2000/svg"
   xmlns:sodipodi="http://sodipodi.sourceforge.net/DTD/sodipodi-0.dtd"
   xmlns:inkscape="http://www.inkscape.org/namespaces/inkscape"
   width="23.719999mm"
   height="23.719999mm"
   viewBox="0 0 23.719999 23.719999"
   version="1.1"
   id="svg8"
   inkscape:version="1.0.2 (e86c870879, 2021-01-15)"
   sodipodi:docname="home.svg">
  <defs
     id="defs2" />
  <sodipodi:namedview
     id="base"
     pagecolor="#3d3d3d"
     bordercolor="#666666"
     borderopacity="1.0"
     inkscape:pageopacity="0"
     inkscape:pageshadow="2"
     inkscape:zoom="2.8284271"
     inkscape:cx="-10.884272"
     inkscape:cy="90.233557"
     inkscape:document-units="mm"
     inkscape:current-layer="layer1"
     inkscape:document-rotation="0"
     showgrid="false"
     inkscape:snap-global="true"
     inkscape:snap-object-midpoints="true"
     inkscape:window-width="1920"
     inkscape:window-height="1017"
     inkscape:window-x="-8"
     inkscape:window-y="-8"
     inkscape:window-maximized="1" />
  <metadata
     id="metadata5">
    <rdf:RDF>
      <cc:Work
         rdf:about="">
        <dc:format>image/svg+xml</dc:format>
        <dc:type
           rdf:resource="http://purl.org/dc/dcmitype/StillImage" />
        <dc:title />
      </cc:Work>
    </rdf:RDF>
  </metadata>
  <g
     inkscape:label="Layer 1"
     inkscape:groupmode="layer"
     id="layer1"
     transform="translate(-0.135999,-0.13732999)">
    <g
       id="g16"
       style="fill:#ffffff;stroke:none">
      <path
         id="path20"
         style="fill:#ffffff;fill-opacity:1;stroke:none;stroke-width:0.264583"
         d="M 11.98644,0.137332 A 11.860084,11.860084 0 0 0 0.135998,11.997073 11.860084,11.860084 0 0 0 11.996258,23.857331 11.860084,11.860084 0 0 0 23.855997,11.997073 11.860084,11.860084 0 0 0 11.996258,0.137332 a 11.860084,11.860084 0 0 0 -0.0098,0 z m -0.04754,0.86868 a 10.991459,10.991459 0 0 1 0.05736,0 A 10.991459,10.991459 0 0 1 22.987833,11.997073 10.991459,10.991459 0 0 1 11.996258,22.988651 10.991459,10.991459 0 0 1 1.004681,11.997073 10.991459,10.991459 0 0 1 11.938897,1.006012 Z" />
      <path
         id="path858"
         style="fill:#ffffff;stroke:none;stroke-width:0.999999px;stroke-linecap:butt;stroke-linejoin:miter;stroke-opacity:1"
         d="M 45.457031,23.548828 22.601562,43.878906 v 30.240235 h 14.553112 0.612904 V 73.616072 61.227679 c -0.122358,-1.860883 -0.06071,-1.786273 1.696708,-1.786273 h 12.053572 c 1.910614,0 1.607142,0.110028 1.607142,1.786273 v 12.410715 0.480747 h 0.580358 14.480189 V 43.689453 Z"
         transform="matrix(0.26458333,0,0,0.26458333,0.135999,0.13732999)"
         sodipodi:nodetypes="cccccccccccccccc" />
      <path
         id="path860"
         style="fill:#ffffff;fill-opacity:1;stroke:none;stroke-width:0.999999px;stroke-linecap:butt;stroke-linejoin:miter;stroke-opacity:1"
         d="m 45.378906,12.410156 v 0.02149 l -29.948008,27.00567 4.409273,4.288329 25.550454,-22.176087 25.5485,22.176087 4.411227,-4.288329 -29.948008,-27.00567 v -0.02149 l -0.01172,0.0098 z"
         transform="matrix(0.26458333,0,0,0.26458333,0.135999,0.13732999)"
         sodipodi:nodetypes="ccccccccccc" />
      <path
         style="fill:#ffffff;stroke:none;stroke-width:0.264583px;stroke-linecap:butt;stroke-linejoin:miter;stroke-opacity:1;fill-opacity:1"
         d="M 6.0827459,8.2890503 V 4.7477292 h 2.2049734 v 1.5200955 z"
         id="path876" />
    </g>
  </g>
</svg>
