<?xml version="1.0" encoding="UTF-8" standalone="no"?>
<svg
   xmlns:dc="http://purl.org/dc/elements/1.1/"
   xmlns:cc="http://creativecommons.org/ns#"
   xmlns:rdf="http://www.w3.org/1999/02/22-rdf-syntax-ns#"
   xmlns:svg="http://www.w3.org/2000/svg"
   xmlns="http://www.w3.org/2000/svg"
   xmlns:sodipodi="http://sodipodi.sourceforge.net/DTD/sodipodi-0.dtd"
   xmlns:inkscape="http://www.inkscape.org/namespaces/inkscape"
   width="23.719999mm"
   height="23.719999mm"
   viewBox="0 0 23.719999 23.719999"
   version="1.1"
   id="svg8"
   inkscape:version="1.0.2 (e86c870879, 2021-01-15)"
   sodipodi:docname="projects.svg">
  <defs
     id="defs2" />
  <sodipodi:namedview
     id="base"
     pagecolor="#3d3d3d"
     bordercolor="#666666"
     borderopacity="1.0"
     inkscape:pageopacity="0"
     inkscape:pageshadow="2"
     inkscape:zoom="2.8284271"
     inkscape:cx="16.183152"
     inkscape:cy="77.307074"
     inkscape:document-units="mm"
     inkscape:current-layer="layer1"
     inkscape:document-rotation="0"
     showgrid="false"
     inkscape:snap-global="true"
     inkscape:snap-object-midpoints="true"
     inkscape:window-width="1920"
     inkscape:window-height="1017"
     inkscape:window-x="-8"
     inkscape:window-y="-8"
     inkscape:window-maximized="1" />
  <metadata
     id="metadata5">
    <rdf:RDF>
      <cc:Work
         rdf:about="">
        <dc:format>image/svg+xml</dc:format>
        <dc:type
           rdf:resource="http://purl.org/dc/dcmitype/StillImage" />
        <dc:title></dc:title>
      </cc:Work>
    </rdf:RDF>
  </metadata>
  <g
     inkscape:label="Layer 1"
     inkscape:groupmode="layer"
     id="layer1"
     transform="translate(-0.135999,-0.13732999)">
    <path
       id="path20"
       style="fill:#ffffff;fill-opacity:1;stroke:none;stroke-width:0.264583"
       d="M 11.98644,0.137332 A 11.860084,11.860084 0 0 0 0.135998,11.997073 11.860084,11.860084 0 0 0 11.996258,23.857331 11.860084,11.860084 0 0 0 23.855997,11.997073 11.860084,11.860084 0 0 0 11.996258,0.137332 a 11.860084,11.860084 0 0 0 -0.0098,0 z m -0.04754,0.86868 a 10.991459,10.991459 0 0 1 0.05736,0 A 10.991459,10.991459 0 0 1 22.987833,11.997073 10.991459,10.991459 0 0 1 11.996258,22.988651 10.991459,10.991459 0 0 1 1.004681,11.997073 10.991459,10.991459 0 0 1 11.938897,1.006012 Z" />
    <path
       id="path31"
       style="opacity:1;fill:#ffffff;stroke-width:0.523755"
       d="m 14.399534,3.0301932 c -0.117419,0 -0.166168,0.1761398 -0.21258,0.3587925 L 13.931857,4.3907018 A 5.1393597,5.1393597 0 0 0 13.177978,4.6333533 L 12.38988,3.9676162 C 12.273931,3.8060505 12.10365,3.7311712 12.008273,3.7996267 l -1.180076,0.8472069 c -0.09539,0.06846 -0.03146,0.2393328 0.03733,0.4147892 l 0.376421,0.961274 A 5.1393597,5.1393597 0 0 0 10.680945,6.8099593 L 9.6657488,6.730113 C 9.4756416,6.6717292 9.2947465,6.715352 9.2602922,6.8275881 L 8.8340989,8.2171319 c -0.034471,0.1122464 0.1159992,0.2131631 0.2810192,0.307981 l 0.8845387,0.5081166 a 5.1393597,5.1393597 0 0 0 -0.013481,0.3556817 5.1393597,5.1393597 0 0 0 0.041483,0.6398118 l -0.8565397,0.551671 c -0.1866101,0.06873 -0.3039655,0.212333 -0.2633908,0.322497 l 0.501895,1.364658 c 0.040567,0.110144 0.221894,0.09928 0.4106417,0.07466 l 1.0110488,-0.131698 a 5.1393597,5.1393597 0 0 0 0.494636,0.638774 l -0.381606,0.942609 c -0.113097,0.163674 -0.125637,0.349126 -0.02903,0.415827 l 1.195629,0.825431 c 0.09662,0.06673 0.23831,-0.04549 0.378494,-0.174213 L 13.23917,14.17039 a 5.1393597,5.1393597 0 0 0 0.725881,0.225024 l 0.221913,0.993419 c 0,0.198871 0.09516,0.358793 0.212579,0.358793 h 1.452799 c 0.11742,0 0.169343,-0.173216 0.211542,-0.358793 l 0.22606,-0.995494 a 5.1393597,5.1393597 0 0 0 0.81195,-0.26028 l 0.759065,0.677143 c 0.115948,0.161657 0.286228,0.236437 0.381606,0.16799 l 1.181112,-0.847207 c 0.0954,-0.06847 0.03657,-0.239407 -0.03733,-0.41479 l -0.396122,-0.940534 a 5.1393597,5.1393597 0 0 0 0.564114,-0.780841 l 1.031788,0.05288 c 0.190103,0.05837 0.371003,0.01477 0.405456,-0.09748 l 0.426197,-1.389544 c 0.03447,-0.112238 -0.120025,-0.209997 -0.28102,-0.307981 L 20.254294,9.7155509 a 5.1393597,5.1393597 0 0 0 0.01041,-0.3266454 5.1393597,5.1393597 0 0 0 -0.03629,-0.6107768 l 0.85233,-0.5827734 C 21.267356,8.1266273 21.38471,7.982 21.344135,7.8718196 L 20.841209,6.5082004 C 20.800641,6.3980482 20.619068,6.4140131 20.431605,6.4335381 L 19.402928,6.5403465 A 5.1393597,5.1393597 0 0 0 18.94666,5.951346 L 19.307526,4.9848869 C 19.42052,4.8212463 19.4342,4.6357643 19.3376,4.5690608 L 18.141972,3.7425932 c -0.09662,-0.066722 -0.236524,0.051321 -0.378496,0.1752483 L 16.984709,4.5980957 A 5.1393597,5.1393597 0 0 0 16.316897,4.3896643 L 16.063875,3.3889857 c 0,-0.1988657 -0.09413,-0.3587925 -0.211543,-0.3587925 z m 0.72588,2.4119988 a 3.9462957,3.9462957 0 0 1 3.94672,3.9467192 3.9462957,3.9462957 0 0 1 -3.94672,3.9467198 3.9462957,3.9462957 0 0 1 -3.945682,-3.9467198 3.9462957,3.9462957 0 0 1 3.945682,-3.9467192 z" />
    <path
       id="path721"
       style="opacity:1;fill:#ffffff;stroke-width:0.530931"
       d="m 15.08912,6.1234831 a 3.265839,3.265839 0 0 0 -3.229134,3.2654281 3.265839,3.265839 0 0 0 3.265428,3.2654288 3.265839,3.265839 0 0 0 3.266464,-3.2654288 3.265839,3.265839 0 0 0 -3.266464,-3.2654281 3.265839,3.265839 0 0 0 -0.03629,0 z m 0.02282,0.9343129 a 2.3313542,2.3313542 0 0 1 0.01348,0 2.3313542,2.3313542 0 0 1 2.332152,2.3311152 A 2.3313542,2.3313542 0 0 1 15.12542,11.720026 2.3313542,2.3313542 0 0 1 12.794304,9.3889112 2.3313542,2.3313542 0 0 1 15.111939,7.057796 Z" />
    <path
       id="path31-0"
       style="fill:#ffffff;stroke-width:0.3355"
       d="m 7.6959768,11.968794 c -0.072732,-0.01916 -0.1316793,0.08199 -0.1902151,0.187573 l -0.3214339,0.578896 a 3.2921231,3.2921231 0 0 0 -0.5065766,0.02732 L 6.2981704,12.221632 C 6.2527012,12.102644 6.1594396,12.028467 6.0891899,12.05532 l -0.8692083,0.332283 c -0.070266,0.02686 -0.058544,0.14312 -0.044541,0.263036 l 0.076351,0.656867 A 3.2921231,3.2921231 0 0 0 4.7758819,13.703523 L 4.1600465,13.488439 C 4.0518076,13.421249 3.93265,13.418729 3.8929869,13.482739 l -0.4906925,0.79118 c -0.03966,0.06391 0.037083,0.150956 0.1238313,0.236634 l 0.4650196,0.459055 a 3.2921231,3.2921231 0 0 0 -0.066361,0.218139 3.2921231,3.2921231 0 0 0 -0.078686,0.403097 l -0.620573,0.201967 c -0.1268126,0.01212 -0.2229346,0.08196 -0.2157696,0.156811 l 0.088269,0.927212 c 0.00716,0.07486 0.1212564,0.09769 0.2421894,0.113245 l 0.6477769,0.08337 a 3.2921231,3.2921231 0 0 0 0.202192,0.47638 l -0.390158,0.521647 c -0.096758,0.08294 -0.1347795,0.195763 -0.085805,0.252849 l 0.6059698,0.706367 c 0.04896,0.05711 0.1550415,0.01076 0.2628768,-0.04616 L 5.159821,18.680313 a 3.2921231,3.2921231 0 0 0 0.4129367,0.257806 l -0.024601,0.65158 c -0.032441,0.123184 4.181e-4,0.237781 0.07315,0.256935 l 0.8999342,0.237009 c 0.072732,0.01916 0.1331591,-0.07966 0.1895753,-0.187744 L 7.013244,19.316124 a 3.2921231,3.2921231 0 0 0 0.5454177,-0.02876 l 0.3597327,0.54329 c 0.045445,0.119057 0.1387348,0.193144 0.208983,0.166297 l 0.8698421,-0.332119 c 0.070263,-0.02686 0.061769,-0.142313 0.044501,-0.263039 L 8.949786,18.75456 a 3.2921231,3.2921231 0 0 0 0.4768243,-0.391662 l 0.6305067,0.201104 c 0.108244,0.06719 0.227398,0.06971 0.267062,0.0057 l 0.490698,-0.791222 c 0.03963,-0.06391 -0.04008,-0.149666 -0.123836,-0.236635 l -0.459035,-0.476682 a 3.2921231,3.2921231 0 0 0 0.05993,-0.200583 3.2921231,3.2921231 0 0 0 0.07716,-0.384264 l 0.623091,-0.221942 c 0.126812,-0.01215 0.223089,-0.08256 0.215936,-0.157444 l -0.08906,-0.926747 c -0.0072,-0.07483 -0.122239,-0.09457 -0.241547,-0.113074 l -0.654634,-0.101664 a 3.2921231,3.2921231 0 0 0 -0.186629,-0.439283 l 0.381208,-0.539799 c 0.09669,-0.08293 0.135427,-0.195596 0.08666,-0.252627 L 9.8983175,13.020727 c -0.048978,-0.05713 -0.1549011,-0.0068 -0.2630469,0.0468 L 9.0418836,13.36187 A 3.2921231,3.2921231 0 0 0 8.6622087,13.123828 l 0.00651,-0.661147 c 0.032441,-0.123183 2.228e-4,-0.237613 -0.072509,-0.256766 z m 0.056155,1.612529 A 2.5278811,2.5278811 0 0 1 9.5530542,16.669976 2.5278811,2.5278811 0 0 1 6.464402,18.4709 2.5278811,2.5278811 0 0 1 4.6641207,15.382416 2.5278811,2.5278811 0 0 1 7.7521318,13.581323 Z" />
    <path
       id="path721-9"
       style="fill:#ffffff;stroke-width:0.340098"
       d="M 7.6185058,13.997426 A 2.0920007,2.0920007 0 0 0 5.0855039,15.493392 2.0920007,2.0920007 0 0 0 6.5755472,18.048876 2.0920007,2.0920007 0 0 0 9.1316741,16.559 2.0920007,2.0920007 0 0 0 7.6409864,14.003346 a 2.0920007,2.0920007 0 0 0 -0.022487,-0.006 z m -0.1382581,0.58249 a 1.4933971,1.4933971 0 0 1 0.00834,0.0022 1.4933971,1.4933971 0 0 1 1.0643517,1.82447 1.4933971,1.4933971 0 0 1 -1.8249439,1.063515 1.4933971,1.4933971 0 0 1 -1.0637086,-1.824303 1.4933971,1.4933971 0 0 1 1.8159513,-1.065907 z" />
  </g>
</svg>
