{
    "asset" : {
        "generator" : "Khronos glTF Blender I/O v0.9.36",
        "version" : "2.0"
    },
    "scene" : 0,
    "scenes" : [
        {
            "name" : "HolyHandGrenade",
            "nodes" : [
                0
            ]
        }
    ],
    "nodes" : [
        {
            "mesh" : 0,
            "name" : "HolyHandGrenade",
            "rotation" : [
                0,
                0,
                0.7071067690849304,
                0.7071068286895752
            ],
            "translation" : [
                0,
                4,
                0
            ]
        }
    ],
    "meshes" : [
        {
            "name" : "HolyHandGrenade",
            "primitives" : [
                {
                    "attributes" : {
                        "POSITION" : 0,
                        "NORMAL" : 1,
                        "TEXCOORD_0" : 2,
                        "JOINTS_0" : 3,
                        "WEIGHTS_0" : 4
                    },
                    "indices" : 5
                }
            ]
        }
    ],
    "accessors" : [
        {
            "bufferView" : 0,
            "componentType" : 5126,
            "count" : 477,
            "max" : [
                10.300586700439453,
                7.65920352935791,
                7.878260135650635
            ],
            "min" : [
                -10.512740135192871,
                -7.775998592376709,
                -8.081903457641602
            ],
            "type" : "VEC3"
        },
        {
            "bufferView" : 1,
            "componentType" : 5126,
            "count" : 477,
            "type" : "VEC3"
        },
        {
            "bufferView" : 2,
            "componentType" : 5126,
            "count" : 477,
            "type" : "VEC2"
        },
        {
            "bufferView" : 3,
            "componentType" : 5123,
            "count" : 477,
            "type" : "VEC4"
        },
        {
            "bufferView" : 4,
            "componentType" : 5126,
            "count" : 477,
            "type" : "VEC4"
        },
        {
            "bufferView" : 5,
            "componentType" : 5123,
            "count" : 1725,
            "type" : "SCALAR"
        }
    ],
    "bufferViews" : [
        {
            "buffer" : 0,
            "byteLength" : 5724,
            "byteOffset" : 0
        },
        {
            "buffer" : 0,
            "byteLength" : 5724,
            "byteOffset" : 5724
        },
        {
            "buffer" : 0,
            "byteLength" : 3816,
            "byteOffset" : 11448
        },
        {
            "buffer" : 0,
            "byteLength" : 3816,
            "byteOffset" : 15264
        },
        {
            "buffer" : 0,
            "byteLength" : 7632,
            "byteOffset" : 19080
        },
        {
            "buffer" : 0,
            "byteLength" : 3450,
            "byteOffset" : 26712
        }
    ],
    "buffers" : [
        {
            "byteLength" : 30164,
            "uri" : "data:application/octet-stream;base64,"
        }
    ]
}
