{
    "asset" : {
        "generator" : "Khronos glTF Blender I/O v1.8.19",
        "version" : "2.0"
    },
    "scene" : 0,
    "scenes" : [
        {
            "name" : "Scene",
            "nodes" : [
                5,
                6
            ]
        }
    ],
    "nodes" : [
        {
            "mesh" : 0,
            "name" : "Eyes",
            "scale" : [
                0.38936537504196167,
                0.38936537504196167,
                0.38936537504196167
            ],
            "translation" : [
                0.42286860942840576,
                -0.49869024753570557,
                0.9054669737815857
            ]
        },
        {
            "mesh" : 1,
            "name" : "Front Mesh",
            "rotation" : [
                0.5938583612442017,
                0.2931525409221649,
                0.24598418176174164,
                0.7077327966690063
            ],
            "scale" : [
                0.6142761707305908,
                0.5702620148658752,
                0.614276111125946
            ],
            "translation" : [
                0.00516389450058341,
                -1.7115225791931152,
                1.2340881824493408
            ]
        },
        {
            "mesh" : 2,
            "name" : "Front Mesh.001",
            "rotation" : [
                0.37361231446266174,
                -0.1999642550945282,
                -0.9019798636436462,
                0.08282782882452011
            ],
            "scale" : [
                0.6440727114677429,
                0.5979236364364624,
                0.6440726518630981
            ],
            "translation" : [
                0.00516389450058341,
                -1.7910206317901611,
                1.1890759468078613
            ]
        },
        {
            "mesh" : 3,
            "name" : "Helmet Hood",
            "scale" : [
                1.3535308837890625,
                1.2157100439071655,
                1.3535308837890625
            ],
            "translation" : [
                0.00018640572670847178,
                0.05421257019042969,
                -0.16428007185459137
            ]
        },
        {
            "mesh" : 4,
            "name" : "Nose Bumps",
            "translation" : [
                0,
                0,
                0.0027882636059075594
            ]
        },
        {
            "children" : [
                0,
                1,
                2,
                3,
                4
            ],
            "mesh" : 5,
            "name" : "Mask",
            "scale" : [
                1.360608458518982,
                1.360608458518982,
                1.360608458518982
            ],
            "translation" : [
                0,
                2.9408652782440186,
                0
            ]
        },
        {
            "name" : "Lattice"
        }
    ],
    "materials" : [
        {
            "doubleSided" : true,
            "name" : "Eyes",
            "pbrMetallicRoughness" : {
                "baseColorFactor" : [
                    0.0073970528319478035,
                    0.0022673539351671934,
                    0.001995820552110672,
                    1
                ],
                "roughnessFactor" : 0.018181830644607544
            }
        },
        {
            "doubleSided" : true,
            "name" : "Grating",
            "pbrMetallicRoughness" : {
                "baseColorFactor" : [
                    0.037342462688684464,
                    0.037342462688684464,
                    0.037342462688684464,
                    1
                ],
                "metallicFactor" : 0,
                "roughnessFactor" : 0.15909090638160706
            }
        },
        {
            "doubleSided" : true,
            "name" : "Material.001",
            "pbrMetallicRoughness" : {
                "baseColorFactor" : [
                    0.004580712877213955,
                    0.004580712877213955,
                    0.004580712877213955,
                    1
                ],
                "metallicFactor" : 0.9409090876579285,
                "roughnessFactor" : 0.09999999403953552
            }
        },
        {
            "doubleSided" : true,
            "name" : "Nose",
            "pbrMetallicRoughness" : {
                "baseColorFactor" : [
                    0.5704701542854309,
                    0.5704701542854309,
                    0.5704701542854309,
                    1
                ],
                "metallicFactor" : 0.968181848526001,
                "roughnessFactor" : 0.19999998807907104
            }
        }
    ],
    "meshes" : [
        {
            "name" : "Sphere.003",
            "primitives" : [
                {
                    "attributes" : {
                        "POSITION" : 0,
                        "NORMAL" : 1,
                        "TEXCOORD_0" : 2
                    },
                    "indices" : 3,
                    "material" : 0
                }
            ]
        },
        {
            "name" : "Plane",
            "primitives" : [
                {
                    "attributes" : {
                        "POSITION" : 4,
                        "NORMAL" : 5,
                        "TEXCOORD_0" : 6
                    },
                    "indices" : 7,
                    "material" : 1
                }
            ]
        },
        {
            "name" : "Plane.001",
            "primitives" : [
                {
                    "attributes" : {
                        "POSITION" : 8,
                        "NORMAL" : 9,
                        "TEXCOORD_0" : 10
                    },
                    "indices" : 11,
                    "material" : 1
                }
            ]
        },
        {
            "name" : "Sphere",
            "primitives" : [
                {
                    "attributes" : {
                        "POSITION" : 12,
                        "NORMAL" : 13,
                        "TEXCOORD_0" : 14
                    },
                    "indices" : 15,
                    "material" : 2
                }
            ]
        },
        {
            "name" : "Sphere.004",
            "primitives" : [
                {
                    "attributes" : {
                        "POSITION" : 16,
                        "NORMAL" : 17,
                        "TEXCOORD_0" : 18
                    },
                    "indices" : 19,
                    "material" : 2
                }
            ]
        },
        {
            "name" : "Sphere.002",
            "primitives" : [
                {
                    "attributes" : {
                        "POSITION" : 20,
                        "NORMAL" : 21,
                        "TEXCOORD_0" : 22
                    },
                    "indices" : 23,
                    "material" : 2
                },
                {
                    "attributes" : {
                        "POSITION" : 24,
                        "NORMAL" : 25,
                        "TEXCOORD_0" : 26
                    },
                    "indices" : 27,
                    "material" : 3
                }
            ]
        }
    ],
    "accessors" : [
        {
            "bufferView" : 0,
            "componentType" : 5126,
            "count" : 628,
            "max" : [
                1.1395642757415771,
                1.2130550146102905,
                0.26289817690849304
            ],
            "min" : [
                -3.3116555213928223,
                -1.2678543329238892,
                -0.9630571007728577
            ],
            "type" : "VEC3"
        },
        {
            "bufferView" : 1,
            "componentType" : 5126,
            "count" : 628,
            "type" : "VEC3"
        },
        {
            "bufferView" : 2,
            "componentType" : 5126,
            "count" : 628,
            "type" : "VEC2"
        },
        {
            "bufferView" : 3,
            "componentType" : 5123,
            "count" : 2880,
            "type" : "SCALAR"
        },
        {
            "bufferView" : 4,
            "componentType" : 5126,
            "count" : 2432,
            "max" : [
                0.9007827043533325,
                0.012750023044645786,
                0.694880485534668
            ],
            "min" : [
                -0.6948806047439575,
                -0.012750022113323212,
                -0.9007826447486877
            ],
            "type" : "VEC3"
        },
        {
            "bufferView" : 5,
            "componentType" : 5126,
            "count" : 2432,
            "type" : "VEC3"
        },
        {
            "bufferView" : 6,
            "componentType" : 5126,
            "count" : 2432,
            "type" : "VEC2"
        },
        {
            "bufferView" : 7,
            "componentType" : 5123,
            "count" : 3648,
            "type" : "SCALAR"
        },
        {
            "bufferView" : 8,
            "componentType" : 5126,
            "count" : 1992,
            "max" : [
                0.8218452334403992,
                0.019054897129535675,
                0.6929505467414856
            ],
            "min" : [
                -0.5618782639503479,
                -0.00644514849409461,
                -0.8218451738357544
            ],
            "type" : "VEC3"
        },
        {
            "bufferView" : 9,
            "componentType" : 5126,
            "count" : 1992,
            "type" : "VEC3"
        },
        {
            "bufferView" : 10,
            "componentType" : 5126,
            "count" : 1992,
            "type" : "VEC2"
        },
        {
            "bufferView" : 11,
            "componentType" : 5123,
            "count" : 2988,
            "type" : "SCALAR"
        },
        {
            "bufferView" : 12,
            "componentType" : 5126,
            "count" : 5311,
            "max" : [
                1.4024004936218262,
                1.048161506652832,
                1.1570299863815308
            ],
            "min" : [
                -1.4024004936218262,
                -1.7739737033843994,
                -1.5354071855545044
            ],
            "type" : "VEC3"
        },
        {
            "bufferView" : 13,
            "componentType" : 5126,
            "count" : 5311,
            "type" : "VEC3"
        },
        {
            "bufferView" : 14,
            "componentType" : 5126,
            "count" : 5311,
            "type" : "VEC2"
        },
        {
            "bufferView" : 15,
            "componentType" : 5123,
            "count" : 26712,
            "type" : "SCALAR"
        },
        {
            "bufferView" : 16,
            "componentType" : 5126,
            "count" : 4868,
            "max" : [
                0.0885252133011818,
                -0.44236427545547485,
                1.2687983512878418
            ],
            "min" : [
                -0.0885252058506012,
                -0.7375600934028625,
                1.1297094821929932
            ],
            "type" : "VEC3"
        },
        {
            "bufferView" : 17,
            "componentType" : 5126,
            "count" : 4868,
            "type" : "VEC3"
        },
        {
            "bufferView" : 18,
            "componentType" : 5126,
            "count" : 4868,
            "type" : "VEC2"
        },
        {
            "bufferView" : 19,
            "componentType" : 5123,
            "count" : 15360,
            "type" : "SCALAR"
        },
        {
            "bufferView" : 20,
            "componentType" : 5126,
            "count" : 16350,
            "max" : [
                1.0780563354492188,
                1.0242502689361572,
                1.4656345844268799
            ],
            "min" : [
                -1.0780563354492188,
                -2.5822112560272217,
                -1.4056912660598755
            ],
            "type" : "VEC3"
        },
        {
            "bufferView" : 21,
            "componentType" : 5126,
            "count" : 16350,
            "type" : "VEC3"
        },
        {
            "bufferView" : 22,
            "componentType" : 5126,
            "count" : 16350,
            "type" : "VEC2"
        },
        {
            "bufferView" : 23,
            "componentType" : 5123,
            "count" : 39612,
            "type" : "SCALAR"
        },
        {
            "bufferView" : 24,
            "componentType" : 5126,
            "count" : 8681,
            "max" : [
                0.7014579176902771,
                -0.8637365698814392,
                1.5121173858642578
            ],
            "min" : [
                -0.7014579772949219,
                -1.8536912202835083,
                1.3418198823928833
            ],
            "type" : "VEC3"
        },
        {
            "bufferView" : 25,
            "componentType" : 5126,
            "count" : 8681,
            "type" : "VEC3"
        },
        {
            "bufferView" : 26,
            "componentType" : 5126,
            "count" : 8681,
            "type" : "VEC2"
        },
        {
            "bufferView" : 27,
            "componentType" : 5123,
            "count" : 13248,
            "type" : "SCALAR"
        }
    ],
    "bufferViews" : [
        {
            "buffer" : 0,
            "byteLength" : 7536,
            "byteOffset" : 0
        },
        {
            "buffer" : 0,
            "byteLength" : 7536,
            "byteOffset" : 7536
        },
        {
            "buffer" : 0,
            "byteLength" : 5024,
            "byteOffset" : 15072
        },
        {
            "buffer" : 0,
            "byteLength" : 5760,
            "byteOffset" : 20096
        },
        {
            "buffer" : 0,
            "byteLength" : 29184,
            "byteOffset" : 25856
        },
        {
            "buffer" : 0,
            "byteLength" : 29184,
            "byteOffset" : 55040
        },
        {
            "buffer" : 0,
            "byteLength" : 19456,
            "byteOffset" : 84224
        },
        {
            "buffer" : 0,
            "byteLength" : 7296,
            "byteOffset" : 103680
        },
        {
            "buffer" : 0,
            "byteLength" : 23904,
            "byteOffset" : 110976
        },
        {
            "buffer" : 0,
            "byteLength" : 23904,
            "byteOffset" : 134880
        },
        {
            "buffer" : 0,
            "byteLength" : 15936,
            "byteOffset" : 158784
        },
        {
            "buffer" : 0,
            "byteLength" : 5976,
            "byteOffset" : 174720
        },
        {
            "buffer" : 0,
            "byteLength" : 63732,
            "byteOffset" : 180696
        },
        {
            "buffer" : 0,
            "byteLength" : 63732,
            "byteOffset" : 244428
        },
        {
            "buffer" : 0,
            "byteLength" : 42488,
            "byteOffset" : 308160
        },
        {
            "buffer" : 0,
            "byteLength" : 53424,
            "byteOffset" : 350648
        },
        {
            "buffer" : 0,
            "byteLength" : 58416,
            "byteOffset" : 404072
        },
        {
            "buffer" : 0,
            "byteLength" : 58416,
            "byteOffset" : 462488
        },
        {
            "buffer" : 0,
            "byteLength" : 38944,
            "byteOffset" : 520904
        },
        {
            "buffer" : 0,
            "byteLength" : 30720,
            "byteOffset" : 559848
        },
        {
            "buffer" : 0,
            "byteLength" : 196200,
            "byteOffset" : 590568
        },
        {
            "buffer" : 0,
            "byteLength" : 196200,
            "byteOffset" : 786768
        },
        {
            "buffer" : 0,
            "byteLength" : 130800,
            "byteOffset" : 982968
        },
        {
            "buffer" : 0,
            "byteLength" : 79224,
            "byteOffset" : 1113768
        },
        {
            "buffer" : 0,
            "byteLength" : 104172,
            "byteOffset" : 1192992
        },
        {
            "buffer" : 0,
            "byteLength" : 104172,
            "byteOffset" : 1297164
        },
        {
            "buffer" : 0,
            "byteLength" : 69448,
            "byteOffset" : 1401336
        },
        {
            "buffer" : 0,
            "byteLength" : 26496,
            "byteOffset" : 1470784
        }
    ],
    "buffers" : [
        {
            "byteLength" : 1497280,
            "uri" : "data:application/octet-stream;base64,"
        }
    ]
}
